<svg xmlns="http://www.w3.org/2000/svg" width="57" height="57" viewBox="0 0 57 57">
  <g id="medallion-apple-1" transform="translate(0)">
    <circle id="XMLID_1_" cx="28.5" cy="28.5" r="28.5" transform="translate(0)"/>
    <path id="XMLID_12_" d="M355.966,292.608a4.7,4.7,0,0,0,2.854,4.3,11.639,11.639,0,0,1-1.472,3.025c-.887,1.3-1.806,2.586-3.256,2.613-1.424.026-1.882-.844-3.51-.844s-2.136.818-3.484.871c-1.4.053-2.464-1.4-3.358-2.692-1.826-2.64-3.222-7.461-1.348-10.715a5.207,5.207,0,0,1,4.4-2.665c1.374-.026,2.67.924,3.51.924s2.415-1.143,4.071-.975a4.97,4.97,0,0,1,3.89,2.109,4.808,4.808,0,0,0-2.3,4.046m-2.676-7.9a4.684,4.684,0,0,0,1.106-3.4,4.768,4.768,0,0,0-3.133,1.612,4.452,4.452,0,0,0-1.128,3.29,3.944,3.944,0,0,0,3.155-1.506" transform="translate(-321.663 -264.701)" fill="#fff"/>
  </g>
</svg>
