<svg xmlns="http://www.w3.org/2000/svg" width="6.303" height="10.299" viewBox="0 0 6.303 10.299">
  <g id="noun_Arrow_3134195" transform="translate(-23.37 0.219)">
    <path id="Path_5817" data-name="Path 5817" d="M23.625,9.846a.345.345,0,0,0,.227.084.333.333,0,0,0,.227-.084l5.35-4.711a.258.258,0,0,0,0-.4L24.079.023a.35.35,0,0,0-.314-.081.3.3,0,0,0-.231.2.262.262,0,0,0,.092.277l5.123,4.512L23.625,9.446a.259.259,0,0,0,0,.4Z" transform="translate(0)" fill="#fff" stroke="#21ad8d" stroke-width="0.3"/>
  </g>
</svg>
